<svg width="45" height="42" viewBox="0 0 45 42" fill="none" xmlns="http://www.w3.org/2000/svg">
<path fill-rule="evenodd" clip-rule="evenodd" d="M0 19.6875C0 8.92001 9.89692 0 22.4121 0C34.9551 0 45 8.94014 45 19.6875C45 30.4288 34.962 39.375 22.4121 39.375C19.5045 39.375 16.6874 38.8964 14.0251 37.9513C11.333 40.5344 7.71187 42 3.95508 42C2.7813 42 2.19604 40.5826 3.02291 39.7594C5.00071 37.7904 5.79779 34.9345 5.14125 32.2393C1.82312 28.7184 0 24.2744 0 19.6875ZM14.1713 35.2011C16.7636 36.2289 19.5362 36.7675 22.4121 36.7675C33.4132 36.7675 42.3809 29.0958 42.3809 19.6875C42.3809 10.2792 33.4132 2.6075 22.4121 2.6075C11.508 2.6075 2.61914 10.2792 2.61914 19.6875C2.61914 23.6982 4.28396 27.5962 7.27497 30.6633C7.42685 30.819 7.53759 31.0097 7.59718 31.2185C8.35348 33.8657 8.03593 36.6598 6.79351 39.0301C9.04843 38.4748 11.1185 37.2668 12.7109 35.5344C13.0808 35.1319 13.6622 34.9993 14.1713 35.2011Z" fill="white"/>
<path fill-rule="evenodd" clip-rule="evenodd" d="M8 20C8 17.7944 9.7944 16 12 16C14.2056 16 16 17.7944 16 20C16 22.2056 14.2056 24 12 24C9.7944 24 8 22.2056 8 20ZM10.6667 20C10.6667 20.7352 11.2648 21.3333 12 21.3333C12.7352 21.3333 13.3333 20.7352 13.3333 20C13.3333 19.2648 12.7352 18.6667 12 18.6667C11.2648 18.6667 10.6667 19.2648 10.6667 20Z" fill="white"/>
<path fill-rule="evenodd" clip-rule="evenodd" d="M18 20C18 17.7944 19.7944 16 22 16C24.2056 16 26 17.7944 26 20C26 22.2056 24.2056 24 22 24C19.7944 24 18 22.2056 18 20ZM20.6667 20C20.6667 20.7352 21.2648 21.3333 22 21.3333C22.7352 21.3333 23.3333 20.7352 23.3333 20C23.3333 19.2648 22.7352 18.6667 22 18.6667C21.2648 18.6667 20.6667 19.2648 20.6667 20Z" fill="white"/>
<path fill-rule="evenodd" clip-rule="evenodd" d="M29 20C29 17.7944 30.7944 16 33 16C35.2056 16 37 17.7944 37 20C37 22.2056 35.2056 24 33 24C30.7944 24 29 22.2056 29 20ZM31.6667 20C31.6667 20.7352 32.2648 21.3333 33 21.3333C33.7352 21.3333 34.3333 20.7352 34.3333 20C34.3333 19.2648 33.7352 18.6667 33 18.6667C32.2648 18.6667 31.6667 19.2648 31.6667 20Z" fill="white"/>
</svg>
