<svg width="61" height="65" viewBox="0 0 61 65" fill="none" xmlns="http://www.w3.org/2000/svg">
<path fill-rule="evenodd" clip-rule="evenodd" d="M60.1253 30.7284L57.4018 29.6363V27.8998C57.4401 17.2416 50.2284 7.73221 39.4391 4.21502V1.76765C39.4391 1.0412 38.8068 0.45166 38.0283 0.45166H22.9296C22.1511 0.45166 21.5189 1.0412 21.5189 1.76765V4.22795C10.7295 7.74514 3.51785 17.2545 3.55611 27.9127V29.6626L0.860812 30.7284C0.338586 30.934 0 31.4116 0 31.9392V38.8473C0 39.5733 0.632218 40.1629 1.41125 40.1629H3.24574V42.7949C3.24574 43.5209 3.87748 44.1104 4.65651 44.1104H9.72239C10.2035 45.7578 10.9103 47.3422 11.8247 48.821L8.24084 52.1634C7.69327 52.6762 7.69327 53.5052 8.24084 54.0185L14.2378 59.6107C14.7878 60.1213 15.6768 60.1213 16.2273 59.6107L19.8111 56.2688C21.3931 57.1214 23.0865 57.7792 24.8488 58.2291V62.9531C24.8488 63.6791 25.481 64.2686 26.26 64.2686H34.7261C35.5051 64.2686 36.1374 63.6791 36.1374 62.9531V58.2291C37.9039 57.7805 39.6026 57.1227 41.1889 56.2688L44.7732 59.6107C45.3232 60.1213 46.2122 60.1213 46.7626 59.6107L52.7596 54.0185C53.3072 53.5052 53.3072 52.6762 52.7596 52.1634L49.1753 48.821C50.0897 47.3422 50.797 45.7578 51.2781 44.1104H56.3435C57.1225 44.1104 57.7547 43.5209 57.7547 42.7949V40.1629H59.5892C60.3683 40.1629 61 39.5733 61 38.8473V31.9392C60.9971 31.4076 60.6519 30.93 60.1253 30.7284ZM24.3126 3.09656H36.6171V25.0836H24.3408L24.3126 3.09656ZM50.2479 41.4789H54.9465L54.9327 40.1629H42.0215C41.3778 45.1156 37.1913 49.0185 31.8801 49.6197C25.5049 50.3421 19.7097 46.1078 18.9364 40.1629H6.03955V41.4789H10.7381C11.4153 41.4642 12.0064 41.9012 12.1494 42.518C12.6415 44.572 13.5305 46.5248 14.7739 48.2814C15.1364 48.8014 15.0589 49.4868 14.5903 49.926L11.2178 53.0709L15.211 56.795L18.5835 53.6502C19.055 53.2131 19.7901 53.1409 20.3477 53.4789C22.2424 54.629 24.3466 55.4447 26.556 55.887C27.2179 56.0199 27.6866 56.5711 27.6708 57.2026V61.6763H33.3148V57.2423C33.2995 56.6108 33.7677 56.0592 34.4296 55.9263C36.6395 55.483 38.7432 54.6669 40.6384 53.5186C41.196 53.1801 41.9311 53.2528 42.4021 53.6894L45.7746 56.8342L49.8104 53.0972L46.4379 49.9524C45.9697 49.5131 45.8918 48.8277 46.2547 48.3077C47.4866 46.5404 48.3613 44.5787 48.8367 42.518C48.9792 41.9012 49.5708 41.4642 50.2479 41.4789ZM21.8149 40.1629H39.1851C38.4089 44.6394 33.8877 47.6817 29.0878 46.9579C25.3428 46.3933 22.4065 43.6552 21.801 40.1629H21.8149ZM2.80811 37.5314H58.1918V32.8338L55.4687 31.7417C54.9465 31.5365 54.6079 31.0589 54.6079 30.5314V27.8994C54.6476 18.6981 48.6406 10.411 39.4672 7.01733V26.3996C39.4672 27.1256 38.835 27.7152 38.056 27.7152H22.9296C22.1505 27.7152 21.5188 27.1256 21.5188 26.3996V7.01733C12.3607 10.4123 6.36087 18.6834 6.39195 27.8731V30.5046C6.39195 31.0326 6.05337 31.5102 5.53114 31.7154L2.80811 32.8075V37.5314Z" fill="#D2153D"/>
</svg>
