<svg width="61" height="67" viewBox="0 0 61 67" fill="none" xmlns="http://www.w3.org/2000/svg">
<path fill-rule="evenodd" clip-rule="evenodd" d="M49.8622 30.0525L49.8622 64.7543C49.8622 65.4958 49.2276 66.0975 48.4456 66.0975H41.2338C40.4518 66.0975 39.8172 65.4958 39.8172 64.7538L39.8172 31.7317C39.8172 30.9902 40.4518 30.3884 41.2338 30.3884H43.0052L43.0052 12.0502C43.0052 11.3087 43.6398 10.7065 44.4218 10.7065L53.0358 10.7065C54.8777 10.7065 56.1671 9.05413 56.9179 7.71086L48.6721 7.71086C47.8902 7.71086 47.2555 7.1091 47.2555 6.36714V3.06247L25.7197 3.06247L8.63294 10.2231L30.8485 10.2231C31.6305 10.2231 32.2656 10.8248 32.2656 11.5663V12.8026H33.9799C34.7619 12.8026 35.3965 13.4044 35.3965 14.1459C35.3965 14.8874 34.7619 15.4891 33.9799 15.4891H32.2656V18.7406H33.9799C34.7619 18.7406 35.3965 19.3428 35.3965 20.0843C35.3965 20.8258 34.7619 21.4275 33.9799 21.4275H32.2656V24.679H33.9799C34.7619 24.679 35.3965 25.2807 35.3965 26.0222C35.3965 26.7637 34.7619 27.3655 33.9799 27.3655H32.2656L32.2656 30.3884H33.4412C34.2232 30.3884 34.8583 30.9902 34.8583 31.7317L34.8583 64.7538C34.8583 65.4953 34.2232 66.0971 33.4412 66.0971H25.2944C24.5124 66.0971 23.8778 65.4953 23.8778 64.7538L23.8778 44.4005C19.6894 42.4819 15.2408 41.1263 10.6587 40.3702C3.4614 39.255 1.56282 34.2575 1.56282 31.7722C1.56282 31.0302 2.19744 30.4284 2.97944 30.4284L29.4319 30.4284L29.4319 12.9637L1.9171 12.9637C1.23687 12.9783 0.643055 12.5322 0.5 11.9022V11.62C0.504322 11.0893 0.837475 10.61 1.35016 10.3978L24.8551 0.496569C25.0337 0.419642 25.2267 0.378219 25.4221 0.375488L48.6721 0.375488C49.4541 0.375488 50.0892 0.977248 50.0888 1.71875V5.02388L59.0147 4.93011C59.1679 4.92465 59.3224 4.94195 59.4698 4.98246C60.2206 5.19185 60.6512 5.93745 60.4318 6.64936C60.3469 6.95844 58.3067 13.367 53.0502 13.367H45.8672V21.2127L53.7731 21.2127C59.4401 21.4949 60.4885 28.2522 60.4885 28.5344C60.4971 28.5963 60.5 28.6596 60.5 28.721C60.4942 29.4625 59.8539 30.0593 59.0719 30.0525L49.8622 30.0525ZM32.0247 35.7625V33.0755L4.66589 33.0619C5.19011 34.5936 6.69168 36.9847 11.1263 37.6697C16.3008 38.5296 21.3062 40.1282 25.9746 42.4123C26.4297 42.6486 26.713 43.1028 26.7115 43.5944L26.7115 63.3837H32.0247V62.2011H30.3104C29.5279 62.2011 28.8933 61.5993 28.8933 60.8578C28.8933 60.1163 29.5279 59.5146 30.3104 59.5146H32.0247V56.2632H30.3104C29.5279 56.2632 28.8933 55.6614 28.8933 54.9199C28.8933 54.1784 29.5279 53.5762 30.3104 53.5762H32.0247V50.3253H30.3104C29.5279 50.3253 28.8933 49.7235 28.8933 48.982C28.8933 48.2401 29.5279 47.6383 30.3104 47.6383H32.0247L32.0247 44.3874H30.3104C29.5279 44.3874 28.8933 43.7856 28.8933 43.0437C28.8933 42.3022 29.5279 41.7004 30.3104 41.7004H32.0247V38.4495H30.3104C29.5279 38.4495 28.8933 37.8473 28.8933 37.1058C28.8933 36.3643 29.5279 35.7625 30.3104 35.7625H32.0247ZM45.8384 30.3885V23.8324L53.6738 23.8324C55.7279 23.9398 56.7624 25.8744 57.2583 27.3119L48.4311 27.3119C47.6491 27.3119 47.0145 27.9137 47.0145 28.6556V30.3348L45.8384 30.3885ZM42.6509 33.0754L42.6509 63.4105H47.0284L47.0284 33.0754H42.6509Z" fill="#D2153D"/>
</svg>
