<svg width="62" height="68" viewBox="0 0 62 68" fill="none" xmlns="http://www.w3.org/2000/svg">
<path fill-rule="evenodd" clip-rule="evenodd" d="M19.8829 66.1777L19.8829 19.452L43.1004 19.452C43.873 19.452 44.5 18.8526 44.5 18.1135V2.18127C44.5 1.44213 43.873 0.842285 43.1004 0.842285L1.89964 0.842285C1.12701 0.842285 0.5 1.44213 0.5 2.18127L0.5 66.1777C0.5 66.9169 1.12701 67.5167 1.89964 67.5167L18.4832 67.5167C19.2558 67.5167 19.8829 66.9169 19.8829 66.1777ZM41.7007 3.51978V16.7743L19.0571 16.7743L5.27234 3.51978L41.7007 3.51978ZM3.29932 5.42102L3.29932 64.8391L17.0841 65.0265V60.608H13.6132C12.8406 60.608 12.2136 60.0086 12.2136 59.2694C12.2136 58.5303 12.8406 57.9305 13.6132 57.9305H17.0841V55.2529H13.6132C12.8406 55.2529 12.2136 54.6531 12.2136 53.914C12.2136 53.1748 12.8406 52.575 13.6132 52.575H17.0841V49.8975H10.6466C9.87394 49.8975 9.24693 49.2976 9.24693 48.5585C9.24693 47.8198 9.87394 47.2199 10.6466 47.2199H17.0841L17.0841 44.542H13.6132C12.8406 44.542 12.2136 43.9421 12.2136 43.2034C12.2136 42.4643 12.8406 41.8645 13.6132 41.8645H17.0841V39.1869H13.6132C12.8406 39.1869 12.2136 38.5871 12.2136 37.848C12.2136 37.1088 12.8406 36.509 13.6132 36.509H17.0841V33.8315H10.6466C9.87394 33.8315 9.24693 33.2316 9.24693 32.4925C9.24693 31.7533 9.87394 31.1539 10.6466 31.1539L17.0841 31.1539V28.476L13.6132 28.476C12.8406 28.476 12.2136 27.8761 12.2136 27.137C12.2136 26.3983 12.8406 25.7985 13.6132 25.7985L17.0841 25.7985V23.1205L13.6132 23.1205C12.8406 23.1205 12.2136 22.5211 12.2136 21.782C12.2136 21.0428 12.8406 20.443 13.6132 20.443L17.0841 20.443V18.609L3.29932 5.42102Z" fill="#D2153D"/>
<path fill-rule="evenodd" clip-rule="evenodd" d="M21.5 34.5711L21.5 34.5746L21.5 34.5848V34.5711ZM21.5 34.5746C21.5037 34.8614 21.602 35.1403 21.7806 35.3696L31.7037 48.4164C31.7037 48.4164 31.816 48.4976 31.8721 48.5517C31.8939 48.5728 31.9094 48.5939 31.9242 48.6142C31.9475 48.646 31.9694 48.6759 32.0124 48.7008L51.4509 62.492C52.895 63.7304 54.9512 64.0524 56.7278 63.3176C57.6639 62.8695 58.4653 62.1998 59.058 61.3687L60.2367 59.7853C61.0044 58.8487 61.4467 57.7024 61.5 56.5098C61.4424 54.8508 60.533 53.328 59.0718 52.4496L39.5772 38.7125C39.4973 38.668 39.4116 38.6327 39.3246 38.6043C39.3246 38.6043 39.2404 38.6043 39.1981 38.5231L23.3527 33.2987C22.6187 33.0593 21.8215 33.4395 21.5747 34.1473C21.5263 34.2849 21.5012 34.429 21.5 34.5746ZM57.4155 54.6695C58.1299 55.0576 58.6099 55.7506 58.7069 56.5368C58.6479 57.1556 58.3939 57.7413 57.9773 58.2152L56.7981 59.7582C56.4866 60.2155 56.0628 60.5934 55.5629 60.8544L55.5533 60.8585C55.2911 60.9712 54.5208 61.3021 53.1209 60.3132L51.858 59.4197L54.0051 56.6047L56.1384 53.776L57.4155 54.6695ZM52.5597 53.8981L53.8792 52.1657L39.0858 41.7036L34.7911 47.3339L49.5845 57.796L50.9035 56.0769L39.4792 47.9564C39.4297 47.9252 39.3836 47.8926 39.3389 47.8559C38.7438 47.3784 38.6634 46.5244 39.1591 45.9506C39.6542 45.3767 40.5399 45.2983 41.1349 45.7772L52.5597 53.8981ZM36.5178 40.4854L32.8263 45.3308L30.5388 42.326L32.8543 39.2809L36.5178 40.4854ZM28.7984 40.0386L30.0756 38.3607L26.679 37.2507L28.7984 40.0386Z" fill="#D2153D"/>
</svg>
