<svg width="42" height="42" viewBox="0 0 42 42" fill="none" xmlns="http://www.w3.org/2000/svg">
<path fill-rule="evenodd" clip-rule="evenodd" d="M35.6989 25.7565L40.9203 30.9777C42.3599 32.4172 42.3599 34.7594 40.9203 36.1989L39.0216 38.0975C33.8178 43.301 25.3961 43.3006 20.1928 38.0975L3.89316 21.79C-1.29776 16.5993 -1.29776 8.15309 3.89341 2.96223L5.79596 1.07625C7.23165 -0.359379 9.57399 -0.359379 11.0135 1.08002L16.2336 6.28343C17.6882 7.73785 17.6682 10.0729 16.235 11.506L13.8616 13.8792C12.7683 14.9724 12.7685 16.7416 13.8616 17.8347L24.1488 28.1302C25.239 29.22 27.0135 29.2203 28.1041 28.1298L30.4775 25.7565C31.9169 24.3171 34.2594 24.3171 35.6989 25.7565ZM9.27448 2.82171C8.7931 2.34052 8.01246 2.3406 7.53264 2.8204L6.66684 3.67861L13.6242 10.6357L14.4945 9.7655C14.9755 9.28447 14.9755 8.50607 14.4945 8.02512L9.27448 2.82171ZM21.9336 36.3573L5.63386 20.0497C1.61759 16.0336 1.39684 9.72744 4.95494 5.44762L11.8921 12.3845C10.0693 14.4508 10.1453 17.5994 12.1208 19.5748L22.4076 29.8698L22.4079 29.8701C24.3813 31.8435 27.5299 31.9244 29.5988 30.0992L36.5361 37.0362C32.2698 40.588 25.9775 40.4011 21.9336 36.3573ZM38.3097 35.3288L39.18 34.4585C39.6598 33.9788 39.6598 33.198 39.1799 32.7181L33.9585 27.4969C33.4785 27.017 32.6978 27.0171 32.2179 27.4969L31.3478 28.3671L38.3097 35.3288Z" fill="white"/>
</svg>
